<svg height="512pt" viewBox="0 0 512 512" width="512pt" xmlns="http://www.w3.org/2000/svg"><path d="m512 256c0 141.386719-114.613281 256-256 256s-256-114.613281-256-256 114.613281-256 256-256 256 114.613281 256 256zm0 0" fill="#303a59"/><path d="m447.71875 425.625-45.097656-255.757812-38.183594 6.730468 49.527344 280.867188c12.191406-9.574219 23.484375-20.242188 33.753906-31.839844zm0 0" fill="#c7d9ff"/><path d="m402.621094 169.867188-38.183594 6.730468 22.90625 129.898438c6.460938-.070313 12.96875-.671875 19.367188-1.800782 6.5-1.144531 12.78125-2.8125 18.8125-4.9375zm0 0" fill="#b5ccf4"/><path d="m404.105469 289.921875c-56.3125 9.929687-110.015625-27.671875-119.945313-83.984375l-28.09375-159.34375c-.410156-2.308594 1.132813-4.507812 3.441406-4.914062l195.570313-34.484376c2.308594-.410156 4.507813 1.132813 4.914063 3.441407l28.097656 159.34375c9.929687 56.3125-27.671875 110.011719-83.984375 119.941406zm0 0" fill="#ebf0f3"/><path d="m333.402344 197.253906-28.097656-159.34375c-.40625-2.304687 1.136718-4.507812 3.445312-4.914062l-49.242188 8.683594c-2.308593.40625-3.847656 2.605468-3.441406 4.914062l28.09375 159.34375c9.933594 56.3125 63.632813 93.914062 119.945313 83.984375 8.488281-1.496094 16.550781-3.996094 24.089843-7.339844-46.359374-3.183593-86.359374-37.503906-94.792968-85.328125zm0 0" fill="#c7d9ff"/><path d="m401.5 275.148438c-5.128906.902343-10.339844 1.363281-15.5 1.363281-42.96875 0-79.589844-30.773438-87.070312-73.183594l-8.875-50.34375c-.257813-1.46875.871093-2.8125 2.363281-2.8125h174.941406c1.164063 0 2.160156.832031 2.359375 1.980469l3.601562 20.425781c8.480469 48.082031-23.742187 94.09375-71.820312 102.570313zm0 0" fill="#ffcf11"/><path d="m298.929688 203.328125c7.480468 42.410156 44.101562 73.183594 87.070312 73.183594 3.90625 0 7.839844-.269531 11.746094-.785157-32.523438-12.71875-57.835938-41.566406-64.34375-78.472656l-8.300782-47.082031h-32.683593c-1.492188 0-2.621094 1.34375-2.363281 2.8125zm0 0" fill="#ff9e00"/><path d="m64.28125 425.625c10.269531 11.597656 21.5625 22.265625 33.753906 31.839844l49.527344-280.867188-38.179688-6.730468zm0 0" fill="#c7d9ff"/><path d="m109.378906 169.867188-22.90625 129.910156c6.074219 2.125 12.355469 3.777344 18.816406 4.917968 6.402344 1.128907 12.910157 1.730469 19.367188 1.804688l22.90625-129.902344zm0 0" fill="#b5ccf4"/><path d="m107.894531 289.921875c-56.3125-9.929687-93.914062-63.628906-83.984375-119.941406l28.097656-159.34375c.40625-2.308594 2.605469-3.851563 4.914063-3.441407l195.570313 34.484376c2.308593.40625 3.851562 2.605468 3.441406 4.914062l-28.09375 159.34375c-9.929688 56.3125-63.628906 93.914062-119.945313 83.984375zm0 0" fill="#ebf0f3"/><path d="m73.152344 178.660156 28.09375-159.339844c.40625-2.308593 2.609375-3.851562 4.917968-3.445312l-49.242187-8.679688c-2.308594-.410156-4.507813 1.132813-4.914063 3.441407l-28.097656 159.34375c-9.929687 56.3125 27.671875 110.011719 83.984375 119.941406 8.492188 1.5 16.917969 1.90625 25.148438 1.34375-42.472657-18.847656-68.324219-64.78125-59.890625-112.605469zm0 0" fill="#c7d9ff"/><path d="m219.582031 150.171875c1.492188 0 2.621094 1.34375 2.363281 2.8125l-8.875 50.34375c-7.480468 42.410156-44.101562 73.183594-87.070312 73.183594-5.160156 0-10.371094-.460938-15.5-1.363281-48.078125-8.476563-80.300781-54.488282-71.820312-102.570313l3.601562-20.425781c.203125-1.148438 1.195312-1.980469 2.359375-1.980469zm0 0" fill="#ffcf11"/><path d="m78.175781 150.171875h-33.535156c-1.160156 0-2.15625.832031-2.359375 1.980469l-3.601562 20.425781c-8.257813 46.828125 22.089843 91.683594 68.089843 101.824219-26.207031-23.074219-40.125-58.835938-33.621093-95.742188zm0 0" fill="#ff9e00"/><g fill="#ffe854"><path d="m188.417969 187.332031c0 8.445313-6.84375 15.289063-15.285157 15.289063-8.445312 0-15.289062-6.84375-15.289062-15.289063 0-8.441406 6.84375-15.285156 15.289062-15.285156 8.441407 0 15.285157 6.84375 15.285157 15.285156zm0 0"/><path d="m410.269531 226.167969c0 8.441406-6.847656 15.285156-15.289062 15.285156-8.441407 0-15.285157-6.84375-15.285157-15.285156 0-8.445313 6.84375-15.289063 15.285157-15.289063 8.441406 0 15.289062 6.84375 15.289062 15.289063zm0 0"/><path d="m151.78125 226.167969c0 5.589843-4.53125 10.117187-10.121094 10.117187s-10.121094-4.527344-10.121094-10.117187c0-5.589844 4.53125-10.121094 10.121094-10.121094s10.121094 4.53125 10.121094 10.121094zm0 0"/><path d="m441.121094 205.925781c0 5.589844-4.53125 10.121094-10.121094 10.121094s-10.121094-4.53125-10.121094-10.121094c0-5.589843 4.53125-10.121093 10.121094-10.121093s10.121094 4.53125 10.121094 10.121093zm0 0"/><path d="m374.558594 179.984375c0 5.589844-4.53125 10.121094-10.121094 10.121094s-10.121094-4.53125-10.121094-10.121094c0-5.585937 4.53125-10.117187 10.121094-10.117187s10.121094 4.53125 10.121094 10.117187zm0 0"/></g></svg>